<svg width="6" height="10" viewBox="0 0 6 10" fill="none" xmlns="http://www.w3.org/2000/svg">
<path d="M0.790276 8.97375C0.673107 8.85654 0.607285 8.6976 0.607285 8.53187C0.607285 8.36614 0.673107 8.2072 0.790276 8.09L3.88403 4.99625L0.790276 1.9025C0.676427 1.78462 0.61343 1.62674 0.614854 1.46287C0.616278 1.299 0.682009 1.14224 0.797889 1.02636C0.913769 0.91048 1.07053 0.844749 1.2344 0.843326C1.39827 0.841902 1.55615 0.904898 1.67403 1.01875L5.20965 4.55437C5.32682 4.67158 5.39264 4.83052 5.39264 4.99625C5.39264 5.16197 5.32682 5.32092 5.20965 5.43812L1.67403 8.97375C1.55682 9.09092 1.39788 9.15674 1.23215 9.15674C1.06642 9.15674 0.907481 9.09092 0.790276 8.97375Z" fill="#BEC0C4"/>
</svg>
