<svg width="15" height="17" viewBox="0 0 15 17" fill="none" xmlns="http://www.w3.org/2000/svg">
<path d="M6.9375 5.125H10.3125C10.6874 5.125 10.875 4.93744 10.875 4.5625C10.875 4.18756 10.6874 4 10.3125 4H6.9375C6.56256 4 6.375 4.18756 6.375 4.5625C6.375 4.93744 6.56256 5.125 6.9375 5.125Z" fill="#303133"/>
<path d="M10.3125 8.5H6.9375C6.56256 8.5 6.375 8.31244 6.375 7.9375C6.375 7.56256 6.56256 7.375 6.9375 7.375H10.3125C10.6874 7.375 10.875 7.56256 10.875 7.9375C10.875 8.31244 10.6874 8.5 10.3125 8.5Z" fill="#303133"/>
<path d="M10.3125 11.875H6.9375C6.56256 11.875 6.375 11.6874 6.375 11.3125C6.375 10.9376 6.56256 10.75 6.9375 10.75H10.3125C10.6874 10.75 10.875 10.9376 10.875 11.3125C10.875 11.6874 10.6874 11.875 10.3125 11.875Z" fill="#303133"/>
<path fill-rule="evenodd" clip-rule="evenodd" d="M14.092 0.783027C13.9865 0.677734 13.8517 0.625 13.6875 0.625H1.3125C1.14814 0.625 1.01332 0.677734 0.908027 0.783027C0.802734 0.888496 0.75 1.02332 0.75 1.1875V15.8125C0.75 15.9769 0.802559 16.1117 0.908027 16.217C1.0135 16.3223 1.14832 16.375 1.3125 16.375H13.6875C13.8519 16.375 13.9867 16.3224 14.092 16.217C14.1973 16.1115 14.25 15.9767 14.25 15.8125V1.1875C14.25 1.02314 14.1973 0.88832 14.092 0.783027ZM1.875 15.25V1.75H3.5625V15.25H1.875ZM13.125 15.25H4.6875V1.75H13.125V15.25Z" fill="#303133"/>
</svg>
