<svg width="22" height="18" viewBox="0 0 22 18" fill="none" xmlns="http://www.w3.org/2000/svg">
<g clip-path="url(#clip0_2003_528)">
<path fill-rule="evenodd" clip-rule="evenodd" d="M12.6674 17.7992V12.9996C12.6674 10.6657 13.5874 8.42737 15.225 6.77705C16.8627 5.12673 19.0838 4.19958 21.3998 4.19958V8.9992C20.347 8.9992 19.3373 9.42067 18.5928 10.1709C17.8483 10.9211 17.4301 11.9386 17.4301 12.9996V17.7992H12.6674Z" fill="white"/>
<path fill-rule="evenodd" clip-rule="evenodd" d="M12.8174 7.08106C12.4814 6.4614 11.9886 5.94241 11.3892 5.57681C10.7897 5.2112 10.1049 5.01201 9.40429 4.99947C8.70371 4.98693 8.01231 5.16149 7.40034 5.50541C6.78837 5.84934 6.27764 6.35037 5.92004 6.95761C5.56243 7.56484 5.3707 8.25665 5.36431 8.96274C5.35792 9.66884 5.5371 10.3641 5.88366 10.9778C6.23022 11.5915 6.73179 12.1018 7.33744 12.4569C7.94308 12.812 8.6312 12.9993 9.3319 12.9996H11.0016V17.7992H9.3319C7.83852 17.7992 6.37008 17.4133 5.06693 16.6783C3.76377 15.9433 2.66943 14.8838 1.8885 13.601C1.10757 12.3182 0.666138 10.855 0.606389 9.3513C0.54664 7.84757 0.87057 6.35351 1.54723 5.01192C2.22388 3.67033 3.23065 2.52603 4.47132 1.68837C5.71199 0.850717 7.1451 0.347698 8.6337 0.227387C10.1223 0.107076 11.6167 0.373492 12.9739 1.00118C14.3312 1.62886 15.5061 2.59684 16.3863 3.81261C14.9605 4.60748 13.7385 5.72663 12.8174 7.08106Z" fill="white"/>
</g>
<defs>
<clipPath id="clip0_2003_528">
<rect width="20.8" height="17.6" fill="white" transform="translate(0.599609 0.199219)"/>
</clipPath>
</defs>
</svg>
