<svg viewBox="0 0 14 14" xmlns="http://www.w3.org/2000/svg">
<path d="M11.0879 10.4726L12.7965 12.1811C12.8784 12.2723 12.9194 12.3748 12.9194 12.4885C12.9194 12.6023 12.8761 12.7026 12.7895 12.7895C12.7028 12.8764 12.6025 12.9197 12.4885 12.9194C12.3745 12.9191 12.272 12.8781 12.181 12.7965L10.4725 11.088C9.26055 12.0812 7.91638 12.5345 6.43997 12.4479C4.96356 12.3613 3.68325 11.7575 2.59905 10.6366C1.56005 9.46118 1.05426 8.13528 1.08167 6.65892C1.10908 5.18257 1.66503 3.87942 2.74952 2.74948C3.87951 1.66503 5.1827 1.10909 6.65912 1.08168C8.13553 1.05427 9.46147 1.56005 10.6369 2.59901C11.7579 3.68346 12.3617 4.96372 12.4483 6.43979C12.5349 7.91586 12.0816 9.25997 11.0884 10.4721L11.0879 10.4726ZM6.76847 11.5796C8.13553 11.5432 9.27003 11.0739 10.172 10.1717C11.0739 9.26945 11.5433 8.13499 11.58 6.76827C11.5436 5.40126 11.0742 4.2668 10.172 3.36489C9.26974 2.46298 8.13524 1.99366 6.76847 1.95691C5.40141 1.99336 4.26691 2.46269 3.36496 3.36489C2.46302 4.2671 1.99367 5.40156 1.95693 6.76827C1.99338 8.13528 2.46273 9.26974 3.36496 10.1717C4.2672 11.0736 5.4017 11.5429 6.76847 11.5796Z" fill="#A8ABB2"/>
</svg>
